<svg xmlns="http://www.w3.org/2000/svg" xmlns:xlink="http://www.w3.org/1999/xlink" width="512" zoomAndPan="magnify" viewBox="0 0 384 383.999986" height="512" preserveAspectRatio="xMidYMid meet" version="1.0"><defs><clipPath id="a2d11161db"><path d="M 0 21.292969 L 384 21.292969 L 384 362.542969 L 0 362.542969 Z M 0 21.292969 " clip-rule="nonzero"/></clipPath></defs><path fill="#64001f" d="M 219.429688 152.375 L 167.617188 152.375 C 165.933594 152.375 164.570312 153.742188 164.570312 155.425781 C 164.570312 157.105469 165.933594 158.472656 167.617188 158.472656 L 219.429688 158.472656 C 221.113281 158.472656 222.476562 157.105469 222.476562 155.425781 C 222.476562 153.742188 221.113281 152.375 219.429688 152.375 Z M 219.429688 152.375 " fill-opacity="1" fill-rule="nonzero"/><path fill="#64001f" d="M 219.429688 164.566406 L 167.617188 164.566406 C 165.933594 164.566406 164.570312 165.933594 164.570312 167.613281 C 164.570312 169.296875 165.933594 170.664062 167.617188 170.664062 L 219.429688 170.664062 C 221.113281 170.664062 222.476562 169.296875 222.476562 167.613281 C 222.476562 165.933594 221.113281 164.566406 219.429688 164.566406 Z M 219.429688 164.566406 " fill-opacity="1" fill-rule="nonzero"/><path fill="#64001f" d="M 219.429688 176.757812 L 216.382812 176.757812 C 214.695312 176.757812 213.332031 178.121094 213.332031 179.804688 C 213.332031 181.488281 214.695312 182.851562 216.382812 182.851562 L 219.429688 182.851562 C 221.113281 182.851562 222.476562 181.488281 222.476562 179.804688 C 222.476562 178.121094 221.113281 176.757812 219.429688 176.757812 Z M 219.429688 176.757812 " fill-opacity="1" fill-rule="nonzero"/><path fill="#64001f" d="M 204.191406 176.757812 L 167.617188 176.757812 C 165.933594 176.757812 164.570312 178.121094 164.570312 179.804688 C 164.570312 181.488281 165.933594 182.851562 167.617188 182.851562 L 204.191406 182.851562 C 205.875 182.851562 207.238281 181.488281 207.238281 179.804688 C 207.238281 178.121094 205.875 176.757812 204.191406 176.757812 Z M 204.191406 176.757812 " fill-opacity="1" fill-rule="nonzero"/><path fill="#64001f" d="M 153.601562 134.699219 L 143.820312 142.035156 C 142.167969 139.835938 140.316406 137.769531 138.238281 135.90625 C 130.378906 128.839844 120.25 124.949219 109.714844 124.949219 C 86.1875 124.949219 67.046875 144.085938 67.046875 167.613281 C 67.046875 191.140625 86.1875 210.28125 109.714844 210.28125 C 119.644531 210.28125 128.769531 206.84375 136.027344 201.136719 L 147.796875 211.03125 C 148.371094 211.507812 149.066406 211.746094 149.757812 211.746094 C 150.625 211.746094 151.488281 211.375 152.09375 210.660156 C 153.175781 209.371094 153.011719 207.445312 151.722656 206.367188 L 140.578125 196.992188 C 147.871094 189.335938 152.382812 179 152.382812 167.613281 C 152.382812 160.390625 150.507812 153.378906 147.121094 147.175781 L 157.257812 139.578125 C 158.605469 138.566406 158.878906 136.65625 157.867188 135.308594 C 156.859375 133.964844 154.945312 133.6875 153.601562 134.699219 Z M 112.761719 204.03125 L 112.761719 170.664062 L 146.128906 170.664062 C 144.660156 188.394531 130.496094 202.558594 112.761719 204.03125 Z M 112.761719 131.183594 C 119.675781 131.761719 126.265625 134.296875 131.808594 138.511719 L 112.761719 159.671875 Z M 116.554688 164.566406 L 136.324219 142.59375 C 141.980469 148.582031 145.433594 156.332031 146.128906 164.566406 Z M 73.144531 167.613281 C 73.144531 148.480469 87.921875 132.757812 106.667969 131.199219 L 106.667969 204.035156 C 87.921875 202.472656 73.144531 186.75 73.144531 167.613281 Z M 73.144531 167.613281 " fill-opacity="1" fill-rule="nonzero"/><g clip-path="url(#a2d11161db)"><path fill="#64001f" d="M 344.382812 21.328125 L 39.617188 21.328125 C 17.773438 21.328125 0 39.101562 0 60.949219 L 0 259.042969 C 0 280.886719 17.773438 298.664062 39.617188 298.664062 L 142.296875 298.664062 L 134.816406 326.089844 L 130.835938 326.089844 C 118.898438 326.089844 108.554688 334.582031 106.238281 346.273438 L 103.679688 359.015625 C 103.5 359.910156 103.730469 360.839844 104.3125 361.546875 C 104.886719 362.25 105.753906 362.664062 106.667969 362.664062 L 277.332031 362.664062 C 278.246094 362.664062 279.113281 362.25 279.6875 361.546875 C 280.269531 360.839844 280.5 359.910156 280.320312 359.015625 L 277.761719 346.285156 C 275.441406 334.582031 265.101562 326.089844 253.164062 326.089844 L 249.183594 326.089844 L 241.699219 298.664062 L 344.382812 298.664062 C 366.226562 298.664062 384 280.886719 384 259.042969 L 384 60.949219 C 384 39.101562 366.226562 21.328125 344.382812 21.328125 Z M 271.785156 347.480469 L 273.617188 356.566406 L 110.386719 356.566406 L 112.214844 347.46875 C 113.972656 338.617188 121.804688 332.1875 130.835938 332.1875 L 253.164062 332.1875 C 262.199219 332.1875 270.03125 338.613281 271.785156 347.480469 Z M 242.867188 326.089844 L 141.132812 326.089844 L 148.613281 298.664062 L 235.390625 298.664062 Z M 377.90625 259.042969 C 377.90625 277.527344 362.863281 292.566406 344.382812 292.566406 L 39.617188 292.566406 C 21.136719 292.566406 6.09375 277.527344 6.09375 259.042969 L 6.09375 60.949219 C 6.09375 42.464844 21.136719 27.425781 39.617188 27.425781 L 344.382812 27.425781 C 362.863281 27.425781 377.90625 42.464844 377.90625 60.949219 Z M 377.90625 259.042969 " fill-opacity="1" fill-rule="nonzero"/></g><path fill="#64001f" d="M 344.382812 39.613281 L 39.617188 39.613281 C 27.859375 39.613281 18.285156 49.183594 18.285156 60.949219 L 18.285156 259.042969 C 18.285156 270.804688 27.859375 280.375 39.617188 280.375 L 344.382812 280.375 C 356.140625 280.375 365.714844 270.804688 365.714844 259.042969 L 365.714844 60.949219 C 365.714844 49.183594 356.140625 39.613281 344.382812 39.613281 Z M 256 215.707031 C 254.316406 215.707031 252.953125 217.070312 252.953125 218.753906 L 252.953125 241.769531 L 230.6875 258.617188 L 195.800781 258.617188 C 191.960938 256.761719 189.351562 253.160156 188.933594 249.097656 C 188.871094 248.441406 188.859375 247.78125 188.910156 247.113281 C 189.257812 243.054688 191.730469 239.660156 195.714844 237.710938 L 222.476562 237.710938 C 222.480469 237.710938 222.480469 237.710938 222.480469 237.710938 C 222.84375 237.710938 223.191406 237.625 223.527344 237.5 C 223.609375 237.46875 223.6875 237.441406 223.761719 237.40625 C 224.070312 237.261719 224.363281 237.078125 224.609375 236.832031 C 224.640625 236.800781 224.660156 236.761719 224.691406 236.730469 C 224.839844 236.574219 224.976562 236.410156 225.09375 236.21875 C 240.992188 209.566406 260.304688 194.640625 265.457031 190.949219 C 267.53125 191.867188 269.664062 192.601562 271.824219 193.144531 C 272.855469 196.636719 275.328125 203.136719 279.824219 205.546875 L 271.316406 242.601562 C 271.121094 243.472656 271.3125 244.390625 271.84375 245.105469 L 280.988281 257.355469 C 281.058594 257.445312 281.164062 257.484375 281.242188 257.566406 C 281.367188 257.703125 281.453125 257.859375 281.609375 257.976562 C 281.710938 258.054688 281.835938 258.089844 281.945312 258.152344 C 282.046875 258.207031 282.136719 258.261719 282.238281 258.304688 C 282.625 258.46875 283.019531 258.582031 283.425781 258.582031 C 283.425781 258.582031 283.429688 258.582031 283.429688 258.582031 C 283.429688 258.582031 283.433594 258.582031 283.433594 258.582031 C 283.835938 258.582031 284.234375 258.46875 284.617188 258.304688 C 284.722656 258.261719 284.816406 258.207031 284.914062 258.152344 C 285.023438 258.085938 285.144531 258.054688 285.246094 257.976562 C 285.402344 257.859375 285.492188 257.703125 285.617188 257.566406 C 285.691406 257.484375 285.800781 257.445312 285.871094 257.355469 L 295.011719 245.105469 C 295.546875 244.390625 295.738281 243.472656 295.539062 242.601562 L 287.027344 205.519531 C 291.628906 202.964844 294.109375 195.96875 295.105469 192.390625 C 296.394531 191.972656 297.667969 191.496094 298.925781 190.945312 C 302.1875 191.84375 314.996094 196.707031 323.230469 218.996094 C 324.359375 222.097656 325.351562 225.359375 326.183594 228.6875 C 327.933594 235.722656 329.421875 242.050781 330.613281 247.507812 C 335.113281 267.796875 335.238281 273.871094 335.238281 273.910156 C 335.238281 274.039062 335.296875 274.152344 335.3125 274.273438 L 310.855469 274.273438 L 310.855469 218.753906 C 310.855469 217.070312 309.496094 215.707031 307.808594 215.707031 C 306.125 215.707031 304.761719 217.070312 304.761719 218.753906 L 304.761719 274.28125 L 259.046875 274.28125 L 259.046875 218.753906 C 259.046875 217.070312 257.683594 215.707031 256 215.707031 Z M 283.429688 250.441406 L 277.570312 242.59375 L 283.429688 217.074219 L 289.285156 242.59375 Z M 283.429688 200.40625 C 281.871094 200.40625 280.046875 197.515625 278.710938 194.285156 C 279.867188 194.382812 281.03125 194.464844 282.207031 194.464844 C 284.1875 194.464844 286.15625 194.316406 288.105469 194.042969 C 286.714844 197.519531 284.863281 200.40625 283.429688 200.40625 Z M 291.753906 187.078125 C 286.296875 188.59375 280.367188 188.78125 274.878906 187.605469 C 272 187.035156 269.179688 186.066406 266.503906 184.726562 C 266.5 184.722656 266.488281 184.722656 266.484375 184.71875 C 254.078125 178.632812 246.367188 166.230469 246.367188 152.347656 C 246.367188 132.464844 262.441406 116.292969 282.207031 116.292969 C 301.953125 116.292969 318.015625 132.464844 318.015625 152.347656 C 318.015625 166.257812 309.910156 179.078125 297.371094 185 C 295.550781 185.855469 293.664062 186.550781 291.753906 187.078125 Z M 220.789062 231.613281 L 60.953125 231.613281 L 60.953125 103.613281 L 323.046875 103.613281 L 323.046875 143.03125 C 318.816406 124.265625 302.128906 110.199219 282.210938 110.199219 C 259.085938 110.199219 240.273438 129.105469 240.273438 152.347656 C 240.273438 166.902344 247.546875 180.050781 259.515625 187.746094 C 252.042969 193.429688 235.347656 207.757812 220.789062 231.613281 Z M 323.046875 161.679688 L 323.046875 204.507812 C 317.15625 194.71875 310.511719 189.699219 305.710938 187.199219 C 314.488281 181.183594 320.6875 172.015625 323.046875 161.679688 Z M 359.617188 259.042969 C 359.617188 267.445312 352.785156 274.28125 344.382812 274.28125 L 341.261719 274.28125 C 341.277344 274.15625 341.332031 274.042969 341.332031 273.914062 C 341.332031 273.679688 341.285156 268.183594 337.375 249.902344 L 338.285156 249.902344 C 339.972656 249.902344 341.332031 248.539062 341.332031 246.851562 L 341.332031 88.375 C 341.332031 86.695312 339.972656 85.328125 338.285156 85.328125 L 45.714844 85.328125 C 44.027344 85.328125 42.667969 86.695312 42.667969 88.375 L 42.667969 246.851562 C 42.667969 248.539062 44.027344 249.902344 45.714844 249.902344 L 182.902344 249.902344 C 183.625 256.273438 187.828125 261.847656 193.9375 264.464844 C 194.320312 264.628906 194.726562 264.710938 195.140625 264.710938 L 231.714844 264.710938 C 232.378906 264.710938 233.023438 264.496094 233.554688 264.097656 L 252.953125 249.414062 L 252.953125 274.28125 L 39.617188 274.28125 C 31.214844 274.28125 24.382812 267.445312 24.382812 259.042969 L 24.382812 60.949219 C 24.382812 52.546875 31.214844 45.710938 39.617188 45.710938 L 344.382812 45.710938 C 352.785156 45.710938 359.617188 52.546875 359.617188 60.949219 Z M 359.617188 259.042969 " fill-opacity="1" fill-rule="nonzero"/></svg>